<svg width="25" height="22" viewBox="0 0 25 22" fill="none" xmlns="http://www.w3.org/2000/svg">
<path d="M4.82528 9.27273V18H3.24432V10.8111H3.19318L1.15199 12.1151V10.6662L3.32102 9.27273H4.82528ZM10.267 18.1662C9.56534 18.1662 8.96307 17.9886 8.46023 17.6335C7.96023 17.2756 7.57528 16.7599 7.3054 16.0866C7.03835 15.4105 6.90483 14.5966 6.90483 13.6449C6.90767 12.6932 7.04261 11.8835 7.30966 11.2159C7.57955 10.5455 7.96449 10.0341 8.46449 9.68182C8.96733 9.32955 9.56818 9.15341 10.267 9.15341C10.9659 9.15341 11.5668 9.32955 12.0696 9.68182C12.5724 10.0341 12.9574 10.5455 13.2244 11.2159C13.4943 11.8864 13.6293 12.696 13.6293 13.6449C13.6293 14.5994 13.4943 15.4148 13.2244 16.0909C12.9574 16.7642 12.5724 17.2784 12.0696 17.6335C11.5696 17.9886 10.9688 18.1662 10.267 18.1662ZM10.267 16.8324C10.8125 16.8324 11.2429 16.5639 11.5582 16.027C11.8764 15.4872 12.0355 14.6932 12.0355 13.6449C12.0355 12.9517 11.9631 12.3693 11.8182 11.8977C11.6733 11.4261 11.4688 11.071 11.2045 10.8324C10.9403 10.5909 10.6278 10.4702 10.267 10.4702C9.72443 10.4702 9.29545 10.7401 8.98011 11.2798C8.66477 11.8168 8.50568 12.6051 8.50284 13.6449C8.5 14.3409 8.5696 14.9261 8.71165 15.4006C8.85653 15.875 9.06108 16.233 9.32528 16.4744C9.58949 16.7131 9.90341 16.8324 10.267 16.8324Z" fill="#C41230"/>
<path d="M17.1191 17C25.629 17 25.6249 6.18919 17.1191 6.18919C8.61321 6.18919 3.5 6.18919 3.5 6.18919L6.90397 1" stroke="#C41230" stroke-width="1.5" stroke-linecap="round"/>
</svg>
