<svg width="25" height="22" viewBox="0 0 25 22" fill="none" xmlns="http://www.w3.org/2000/svg">
<path d="M14.8253 9.27273V18H13.2443V10.8111H13.1932L11.152 12.1151V10.6662L13.321 9.27273H14.8253ZM20.267 18.1662C19.5653 18.1662 18.9631 17.9886 18.4602 17.6335C17.9602 17.2756 17.5753 16.7599 17.3054 16.0866C17.0384 15.4105 16.9048 14.5966 16.9048 13.6449C16.9077 12.6932 17.0426 11.8835 17.3097 11.2159C17.5795 10.5455 17.9645 10.0341 18.4645 9.68182C18.9673 9.32955 19.5682 9.15341 20.267 9.15341C20.9659 9.15341 21.5668 9.32955 22.0696 9.68182C22.5724 10.0341 22.9574 10.5455 23.2244 11.2159C23.4943 11.8864 23.6293 12.696 23.6293 13.6449C23.6293 14.5994 23.4943 15.4148 23.2244 16.0909C22.9574 16.7642 22.5724 17.2784 22.0696 17.6335C21.5696 17.9886 20.9688 18.1662 20.267 18.1662ZM20.267 16.8324C20.8125 16.8324 21.2429 16.5639 21.5582 16.027C21.8764 15.4872 22.0355 14.6932 22.0355 13.6449C22.0355 12.9517 21.9631 12.3693 21.8182 11.8977C21.6733 11.4261 21.4688 11.071 21.2045 10.8324C20.9403 10.5909 20.6278 10.4702 20.267 10.4702C19.7244 10.4702 19.2955 10.7401 18.9801 11.2798C18.6648 11.8168 18.5057 12.6051 18.5028 13.6449C18.5 14.3409 18.5696 14.9261 18.7116 15.4006C18.8565 15.875 19.0611 16.233 19.3253 16.4744C19.5895 16.7131 19.9034 16.8324 20.267 16.8324Z" fill="#C41230"/>
<path d="M7.88092 17C-0.629006 17 -0.624943 6.18919 7.88092 6.18919C16.3868 6.18919 21.5 6.18919 21.5 6.18919L18.096 1" stroke="#C41230" stroke-width="1.5" stroke-linecap="round"/>
</svg>
